HIERARCHY
ROOT Hips
{
  OFFSET 13.6774 106.653 -34.4427
  CHANNELS 6 Xposition Yposition Zposition Zrotation Xrotation Yrotation
  JOINT ToSpine
  {
    OFFSET -2.69724 7.43032 -0.144315
    CHANNELS 3 Zrotation Xrotation Yrotation
    JOINT Spine
    {
      OFFSET -0.0310711 10.7595 1.96963
      CHANNELS 3 Zrotation Xrotation Yrotation
      JOINT Spine1
      {
        OFFSET 19.9056 3.91189 0.764692
        CHANNELS 3 Zrotation Xrotation Yrotation
        JOINT Neck
        {
          OFFSET 25.9749 7.03908 -0.130764
          CHANNELS 3 Zrotation Xrotation Yrotation
          JOINT Head
          {
            OFFSET 9.52751 0.295786 -0.907742
            CHANNELS 3 Zrotation Xrotation Yrotation
            End Site
            {
              OFFSET 16.4037 0.713936 2.7358
            }
          }
        }
        JOINT LeftShoulder
        {
          OFFSET 17.7449 4.33886 11.7777
          CHANNELS 3 Zrotation Xrotation Yrotation
          JOINT LeftArm
          {
            OFFSET 0.911315 1.27913 9.80584
            CHANNELS 3 Zrotation Xrotation Yrotation
            JOINT LeftForeArm
            {
              OFFSET 28.6126 1.18197 -3.53199
              CHANNELS 3 Zrotation Xrotation Yrotation
              JOINT LeftHand
              {
                OFFSET 27.5088 0.0218783 0.327423
                CHANNELS 3 Zrotation Xrotation Yrotation
                End Site
                {
                  OFFSET 18.6038 -0.000155887 0.382096
                }
              }
            }
          }
        }
        JOINT RightShoulder
        {
          OFFSET 17.1009 2.89543 -12.2328
          CHANNELS 3 Zrotation Xrotation Yrotation
          JOINT RightArm
          {
            OFFSET 1.4228 0.178766 -10.211
            CHANNELS 3 Zrotation Xrotation Yrotation
            JOINT RightForeArm
            {
              OFFSET 28.733 1.87905 2.64907
              CHANNELS 3 Zrotation Xrotation Yrotation
              JOINT RightHand
              {
                OFFSET 27.4588 0.290562 -0.101845
                CHANNELS 3 Zrotation Xrotation Yrotation
                End Site
                {
                  OFFSET 17.8396 -0.255518 -0.000602873
                }
              }
            }
          }
        }
      }
    }
  }
  JOINT LeftUpLeg
  {
    OFFSET -5.61296 -2.22332 -10.2353
    CHANNELS 3 Zrotation Xrotation Yrotation
    JOINT LeftLeg
    {
      OFFSET 2.56703 -44.7417 -7.93097
      CHANNELS 3 Zrotation Xrotation Yrotation
      JOINT LeftFoot
      {
        OFFSET 3.16933 -46.5642 -3.96578
        CHANNELS 3 Zrotation Xrotation Yrotation
        JOINT LeftToeBase
        {
          OFFSET 0.346054 -6.02161 12.8035
          CHANNELS 3 Zrotation Xrotation Yrotation
          End Site
          {
            OFFSET 0.134235 -1.35082 5.13018
          }
        }
      }
    }
  }
  JOINT RightUpLeg
  {
    OFFSET -5.7928 -1.72406 10.6446
    CHANNELS 3 Zrotation Xrotation Yrotation
    JOINT RightLeg
    {
      OFFSET -2.57161 -44.7178 -7.85259
      CHANNELS 3 Zrotation Xrotation Yrotation
      JOINT RightFoot
      {
        OFFSET -3.10148 -46.5936 -4.03391
        CHANNELS 3 Zrotation Xrotation Yrotation
        JOINT RightToeBase
        {
          OFFSET -0.0828122 -6.13587 12.8035
          CHANNELS 3 Zrotation Xrotation Yrotation
          End Site
          {
            OFFSET -0.131328 -1.35082 5.13018
          }
        }
      }
    }
  }
}
MOTION
Frames: 15
Frame Time: 0.03333333333333333
0.0000 93.1000 0.0000 -74.4188 -23.8750 -166.9040 -70.8668 -0.1191 87.6816 134.2459 78.9641 -40.4620 -8.6039 32.3687 1.5837 -141.2779 13.2576 -169.4163 -159.7714 50.6323 -169.1744 0.2370 -14.0173 -21.0256 -123.2678 10.4646 -84.2943 12.3739 2.7288 -72.8430 -0.3342 0.0939 0.1535 -2.7208 12.2727 26.1065 -64.3316 -14.2903 162.5112 6.0605 0.3413 90.9976 0.6449 -0.3097 0.3062 -39.2392 -4.8062 62.8702 -9.5326 62.0926 -31.0074 -3.9560 -20.8680 -1.0711 3.3470 -10.2594 6.0572 -51.0307 -13.0353 91.5441 3.3660 51.2788 1.7503 -11.7485 14.9469 0.4624 2.4878 -27.6153 -10.6465 
0.0000 93.1000 0.0000 -72.9360 -12.1030 -169.9364 -70.8746 -0.1858 87.7482 136.1132 79.8464 -42.7549 -10.1521 32.8366 1.7137 -141.9706 10.8010 -164.8632 -159.4661 47.6663 -168.0804 0.6107 -13.2267 -22.1553 -124.5366 2.9256 -84.0929 10.4537 4.0000 -67.8634 0.0585 -0.1816 0.0726 -2.5965 12.8973 26.7968 -62.7408 -10.4942 163.2924 5.7360 -0.0241 92.4192 0.8232 -0.5700 0.6061 -38.2832 -8.4653 60.4300 -10.2160 65.0663 -24.7918 -1.2931 -25.9059 -1.7383 4.8951 -13.0981 8.3103 -49.4707 -15.5308 95.0449 1.8577 46.0901 1.5642 -12.3246 6.7254 1.2052 3.4123 -33.3864 -0.0069 
0.0000 93.1000 0.0000 -71.1329 -1.1053 -174.1145 -70.8849 -0.0667 87.7711 139.8850 79.1781 -48.4089 -11.5761 32.5305 2.6081 -142.8742 6.6594 -160.2755 -159.3097 43.6273 -170.3295 -0.1650 -13.2787 -25.0386 -129.0915 -5.2941 -84.0970 9.5041 3.8818 -64.7932 0.2592 0.5894 -0.4838 -2.6792 12.7555 31.7941 -60.4188 -5.3361 161.7912 6.8459 0.0310 95.1928 -0.0568 0.2128 -0.0802 -34.8162 -8.4382 64.4777 -11.6972 67.1448 -13.8316 1.3897 -26.6591 -2.9991 5.0902 -15.6340 13.9826 -45.4542 -14.9795 99.4137 2.1506 40.5750 8.2799 -10.4818 4.1210 1.6888 3.1274 -36.4821 -6.5248 
0.0000 93.1000 0.0000 -69.1735 6.0224 -176.3047 -70.9013 -0.1262 87.7831 139.0848 78.7517 -48.2993 -13.1285 32.5860 2.1669 -145.3313 3.3204 -160.4255 -156.9572 40.7573 -171.1564 0.0309 -13.2900 -26.4468 -138.4747 -9.3052 -83.1149 9.1794 3.9861 -63.5248 -0.1433 0.3519 -0.0836 -2.8946 12.4299 34.7931 -58.7295 -4.2682 158.3024 7.9429 1.3103 99.1708 0.2051 -0.0560 0.0612 -31.5055 -6.9988 66.3281 -11.3190 68.9788 -9.0314 1.3425 -28.0369 -2.7934 4.0389 -12.7121 16.1276 -42.1342 -14.9834 96.7869 1.0446 34.8716 13.9701 -11.7997 3.9810 1.7641 2.2026 -35.8282 -11.4494 
0.0000 93.1000 0.0000 -66.4432 8.1333 -176.2721 -70.9152 -0.1068 87.7762 132.0904 77.2049 -43.6164 -13.8396 30.6082 2.9526 -148.2645 0.7318 -160.3960 -156.2550 38.5526 -171.8094 -0.1268 -13.2340 -25.8284 -148.3608 -7.5766 -82.2220 8.2929 4.2035 -60.7731 -0.1668 0.4905 -0.0049 -2.9873 11.5922 35.5821 -57.8597 -6.7979 154.0390 8.3690 1.2693 102.1363 0.0739 0.0969 -0.1160 -26.8838 -4.8068 66.2846 -12.2953 70.2157 -8.5783 1.7080 -26.9532 -2.7498 4.5875 -13.0401 17.6840 -40.3169 -15.7499 87.9710 -0.6227 29.2115 21.0927 -13.7080 5.3675 1.7765 2.1279 -35.6665 -12.2732 
0.0000 93.1000 0.0000 -64.3553 6.9901 -176.2750 -70.9132 -0.1444 87.7835 122.0124 75.1891 -37.7926 -13.1393 27.2774 4.0665 -151.5124 -0.5099 -158.6710 -154.6568 37.5043 -171.4208 -0.0082 -13.2150 -26.2142 -153.8185 -6.0745 -84.0950 8.9988 4.9841 -58.8776 -0.1636 0.3295 0.1303 -2.9535 10.3650 37.3739 -57.2571 -8.2931 148.0717 9.1409 2.0609 104.3149 0.1900 -0.1078 -0.0924 -24.2049 -2.0991 68.2338 -9.3982 66.2043 -10.9466 2.1289 -23.1762 -2.2713 4.6454 -13.8869 18.5955 -41.1983 -14.6996 81.8997 -1.3978 23.1114 26.0369 -11.0479 8.3645 0.9473 2.4041 -34.3548 -10.1140 
0.0000 93.1000 0.0000 -63.0710 5.3641 -175.1706 -70.9139 -0.1519 87.7719 120.0095 72.5754 -38.0091 -13.1207 23.8133 4.6976 -152.6868 -1.2867 -159.2998 -153.0589 36.7246 -169.6978 -0.0453 -13.1977 -25.4600 -154.9989 -4.9258 -82.0376 10.2515 5.7830 -58.0393 0.0402 0.3175 0.1048 -2.7881 9.4207 38.3778 -55.5847 -10.3529 140.2615 9.3936 3.0062 106.1630 0.1982 -0.1897 -0.1456 -22.2307 3.3190 72.5112 -7.5814 62.0630 -7.3223 2.5335 -22.1192 -2.3321 4.5784 -13.8041 21.8673 -42.0894 -14.6739 80.7248 0.5961 19.2241 21.9662 -8.5146 10.3531 0.4928 3.2929 -32.0217 -8.5963 
0.0000 93.1000 0.0000 -62.1556 4.0490 -172.8894 -70.9171 -0.1891 87.7485 120.0434 70.4855 -38.1061 -12.9950 21.3518 4.7269 -151.5847 -1.9753 -158.2893 -151.4083 36.1510 -168.2941 0.1264 -12.9108 -25.2270 -153.8477 -4.0143 -79.8753 9.1957 5.0235 -58.0370 -0.0162 0.1212 0.1060 -2.5873 8.8879 39.1238 -54.1820 -13.2797 133.0040 9.0804 3.0120 107.1209 0.2033 -0.4396 -0.0353 -19.8659 12.1064 79.3901 -4.7635 58.9480 0.0204 2.7640 -22.8406 -2.3540 1.9294 -10.3230 21.8018 -44.0442 -13.5986 80.6540 1.1069 15.1943 17.8170 -5.7283 12.8071 -0.0725 3.0088 -29.5754 -5.2603 
0.0000 93.1000 0.0000 -62.2118 3.2896 -172.4986 -70.9290 -0.1662 87.7269 116.0633 70.0256 -35.3462 -11.8118 20.5412 4.2297 -150.3096 -2.3996 -159.9235 -150.4945 35.4684 -169.3091 0.0904 -12.7843 -25.9759 -152.5363 -2.9868 -78.7581 9.1815 4.6896 -59.3512 0.1534 0.1785 -0.0941 -2.3092 8.5643 39.0909 -53.1579 -15.9774 128.0779 10.1027 3.2610 108.1194 0.1146 -0.3610 -0.1069 -20.1339 21.1333 91.1583 -3.3942 55.7715 5.4664 1.9218 -22.9384 -2.3344 -1.1028 -5.7235 20.2934 -46.0340 -12.8427 79.8036 0.7475 13.7405 18.0114 -2.7321 14.6536 -0.5530 3.7238 -28.5143 -4.6852 
0.0000 93.1000 0.0000 -62.7072 3.1598 -173.5946 -70.9307 -0.2054 87.7252 112.7247 69.8525 -31.4548 -10.1546 20.5395 4.0477 -148.5151 -2.4305 -161.0538 -149.5834 35.1304 -169.4905 0.3150 -12.9893 -27.3622 -153.8096 -3.3793 -76.6546 10.4176 4.9203 -62.1086 -0.0606 -0.0559 0.1279 -2.0917 8.2454 37.4086 -50.9863 -19.1505 126.3191 10.8045 4.0202 108.2185 0.2085 -0.5873 0.0318 -23.1616 29.3782 102.7604 -3.4010 53.8826 6.4748 0.0647 -20.7093 -1.7000 -2.8949 -2.7004 18.7108 -47.2469 -13.8364 78.6642 0.6006 15.1524 18.1114 -1.8069 14.3377 -0.8161 3.0349 -29.2097 -2.4084 
0.0000 93.1000 0.0000 -63.5916 2.5203 -174.4319 -70.9346 -0.2186 87.7212 109.9576 69.2531 -29.3841 -8.8571 20.4449 2.9588 -148.5114 -2.3281 -160.4653 -150.0993 35.3086 -169.2358 0.3949 -12.8145 -28.2959 -153.8613 -3.0831 -73.7987 10.2260 4.0493 -66.1090 -0.2002 -0.1134 0.1830 -1.8748 7.8528 35.2230 -47.9983 -21.7946 127.4583 11.4175 3.8487 108.2001 0.3335 -0.6322 0.0280 -27.3158 34.4785 112.3927 -2.8725 52.1025 3.2478 -2.2096 -15.0838 -0.8974 -3.2354 -1.6981 15.5167 -48.1371 -16.5091 77.4789 1.5894 15.0819 21.2533 -1.2794 14.2323 -0.9810 3.1594 -31.2353 -3.2189 
0.0000 93.1000 0.0000 -63.5278 1.5669 -174.4895 -70.9220 -0.1671 87.6905 108.7859 70.1058 -25.0767 -7.6772 21.0443 1.9819 -147.3926 -2.1320 -157.4245 -150.8918 35.1543 -169.4009 0.0917 -13.2905 -30.2566 -154.9740 -2.2189 -71.7841 10.1512 2.9143 -70.9889 -0.0760 0.1534 0.1457 -1.9335 7.8931 34.1824 -45.8257 -21.9365 129.4043 11.5752 3.9017 109.2505 0.2531 -0.2793 0.0593 -29.2139 36.6660 116.6325 -3.7064 53.1775 0.2946 -5.8275 -12.1902 -0.3873 -2.2013 -1.8380 10.0871 -47.1106 -17.7158 76.8657 2.1131 18.8338 22.8293 -3.6427 11.8506 -0.3581 3.4867 -34.0319 -7.0217 
0.0000 93.1000 0.0000 -64.5395 0.3964 -174.6171 -70.9084 -0.1133 87.6682 105.7336 71.1184 -21.2960 -6.1979 21.4158 1.0873 -146.3518 -0.9440 -157.0731 -150.3104 35.3012 -169.0197 -0.2401 -13.9456 -32.4868 -156.8818 -1.1332 -70.7843 11.2294 2.9567 -75.0733 -0.2593 0.3836 0.0317 -2.2142 7.4879 36.1167 -44.7959 -21.1596 130.1939 11.9965 4.1801 111.3493 0.3231 0.0383 0.1060 -28.9676 37.2945 117.4058 -3.9412 55.1874 -1.7752 -6.8619 -13.4931 -0.6908 -1.9960 -1.8755 7.8883 -45.2378 -18.8494 77.6690 1.1037 25.2088 19.5114 -7.7975 8.2298 0.5780 2.1356 -34.2078 -9.9882 
0.0000 93.1000 0.0000 -64.5398 -1.5578 -174.8223 -70.9106 -0.0401 87.6587 103.7633 72.0113 -18.4795 -4.9801 21.7207 1.9474 -144.3152 0.4245 -157.7697 -150.1808 36.2732 -170.0777 -0.8076 -14.9164 -35.1156 -157.8728 0.9794 -70.7377 12.0350 2.1753 -78.0426 0.0215 0.7273 -0.0323 -2.4440 7.7595 37.4862 -44.8517 -21.8422 130.5289 12.3685 4.8376 111.2796 -0.2226 0.4789 -0.0901 -27.9934 36.6402 116.2417 -4.8981 56.1362 -1.4594 -6.1114 -13.0303 -1.0999 -1.0294 -1.9171 7.7086 -44.1868 -18.8897 78.8545 2.2448 30.0009 15.3028 -11.1768 5.5565 1.3231 1.9084 -33.4839 -13.1923 
0.0000 93.1000 0.0000 -65.3599 -3.6172 -175.0896 -70.9241 -0.0318 87.6582 102.5566 72.2063 -16.2779 -2.9867 22.0211 0.9643 -142.3689 1.6543 -158.7284 -149.5236 37.0403 -170.7249 -1.0472 -15.9034 -35.9082 -157.7881 2.8121 -70.4985 12.2695 1.9589 -79.2326 -0.0115 0.7352 -0.0555 -2.6542 8.2535 38.0755 -45.7989 -22.9230 132.3391 11.9147 4.9714 111.2943 -0.0079 0.5368 -0.1893 -27.1377 35.4330 113.3623 -4.8610 58.0847 -0.8195 -5.2510 -12.6642 -1.2797 -0.1052 -2.9567 6.9538 -45.2045 -19.9104 79.5848 2.4350 32.9422 12.1648 -12.5123 2.8777 1.5717 1.9944 -33.0726 -15.2251 
